<svg width="2114" height="2114" viewBox="0 0 2114 2114" fill="none" xmlns="http://www.w3.org/2000/svg">
<path d="M897.682 2060.74C911.654 2053.87 924.898 2045.56 937.342 2036.22C943.137 2031.87 964.38 2009.84 968.868 2012.19C972.156 2013.9 974.521 2036.39 975.264 2039.91C976.895 2047.64 978.59 2055.35 980.454 2063.03C984.392 2079.26 991.645 2097.08 992.485 2114H1049.34C1048.79 2104.98 1051.35 2095.03 1051.2 2086.06C1051 2074.71 1049.79 2063.38 1048.69 2052.09C1046.46 2029.27 1044.86 2005.87 1039.77 1983.46C1037.91 1975.26 1035.48 1967.22 1032.21 1959.47C1029.69 1953.51 1021.42 1943.47 1021.34 1937.16C1021.26 1930.1 1033.15 1917.66 1037.21 1912.16C1044.41 1902.41 1052.43 1893.28 1060.62 1884.35C1072.8 1871.07 1086.18 1856.54 1101.32 1846.56C1107.67 1842.37 1117.48 1837.53 1125.32 1840.8C1134.9 1844.81 1132.91 1857.36 1132.9 1866.07C1132.86 1907.57 1126.72 1948.3 1140.28 1988.6C1164.22 2059.71 1242.22 2102.12 1314.2 2075.83C1347.93 2063.51 1376.23 2038.68 1390.37 2005.49C1407.03 1966.4 1407.31 1921.59 1411.72 1879.96C1416.52 1834.65 1427.7 1790.65 1456.24 1754.13C1484.44 1718.02 1527.94 1687.58 1568.14 1666.15C1571.01 1671.89 1557.87 1695.66 1555.45 1701.9C1549.66 1716.84 1543.82 1731.76 1538.57 1746.9C1528.04 1777.25 1520.38 1808.53 1516.21 1840.39C1508.19 1901.61 1509.22 1968.65 1548.38 2019.38C1580.59 2061.12 1632.97 2092.09 1686.7 2091.86C1744.15 2091.6 1780.11 2045.32 1800.54 1996.53C1814.01 1964.35 1822.07 1930.29 1832.28 1897.02C1837.44 1880.19 1843.16 1863.53 1850.04 1847.32C1851.88 1842.98 1865.6 1808.47 1869.75 1809.4C1873.33 1810.2 1873.35 1842.41 1873.41 1846.4C1873.63 1861.25 1872.5 1876.08 1870.58 1890.79C1866.97 1918.31 1859.65 1945.07 1855.27 1972.43C1851.06 1998.78 1850.59 2026.12 1856.75 2052.21C1859.92 2065.62 1864.86 2078.67 1871.83 2090.57C1875.18 2096.29 1878.98 2101.74 1883.22 2106.84C1884.65 2108.56 1888.37 2111.34 1890.52 2114H2059.56C2066.51 2108.5 2085.9 2099.06 2089.09 2097.23C2097.25 2092.56 2105.51 2088.3 2114 2084.41V2024.52C2107.74 2027.5 2100.59 2032.86 2097.04 2034.93C2086.83 2040.89 2076.84 2047.25 2066.81 2053.5C2047.98 2065.22 2028.03 2079.04 2005.77 2082.96C1953.51 2092.18 1946.67 2030.45 1946.14 1992.99C1945.42 1942.26 1939.95 1891.77 1930.65 1841.91C1926.05 1817.28 1920.38 1792.89 1915.07 1768.42C1912.21 1755.22 1915.62 1752.02 1927.44 1745.37C1936.92 1740.04 1947.37 1736.56 1958.04 1734.61C1983.29 1729.98 2010.38 1733.86 2035.65 1736.85C2061.74 1739.95 2087.75 1742.31 2114 1741.71V1648.69C2072.32 1641.65 2030.48 1635.19 1988.55 1644.86C1967.66 1649.68 1948.18 1658.64 1930.34 1670.47C1928.6 1671.62 1911.95 1684.82 1911.11 1683.92C1908.57 1681.18 1915.22 1660.52 1916.36 1656.52C1928.17 1614.92 1960.22 1589.76 1999.08 1573.43C2019.36 1564.91 2039.72 1563.22 2061.54 1564C2071.99 1564.37 2082.43 1565.32 2092.77 1566.88C2096.11 1567.38 2106.35 1570.73 2114 1572.19V1522.32C2107.75 1521.3 2100.99 1518.92 2095.69 1518.19C2085.22 1516.74 2074.66 1515.9 2064.08 1515.79C2043.53 1515.57 2023.12 1518.21 2003.38 1523.98C1968.57 1534.16 1932.11 1552.71 1907.23 1579.63C1882.13 1606.8 1866.67 1643.71 1861.36 1680.08C1860.04 1689.15 1859.21 1698.36 1858.96 1707.53C1858.68 1717.76 1861.41 1729.02 1859.57 1739.07C1857.8 1748.71 1850.42 1756.33 1845.15 1764.25C1839.44 1772.81 1834.11 1781.62 1829.07 1790.6C1809.02 1826.27 1793.36 1864.24 1779.79 1902.79C1766.45 1940.71 1753.96 1978.82 1729.03 2011.06C1720.6 2021.97 1707.22 2039.89 1692.68 2028.49C1677.53 2016.6 1673.81 1992 1672.54 1974.14C1669.61 1933.13 1663.64 1891.83 1670.29 1850.85C1682.75 1773.98 1743.69 1700.53 1717.07 1620.9C1712.04 1605.85 1703.88 1591.62 1692.37 1580.59C1686.22 1574.7 1679.35 1570.78 1672.19 1566.34C1663.55 1560.98 1666.24 1559.42 1667.96 1548.69C1674.27 1509.28 1672.37 1467.94 1662.48 1429.31C1652.13 1388.86 1632.45 1351.71 1614.67 1314.19C1600.22 1283.71 1578.13 1241.21 1604.82 1211.08C1630.71 1181.84 1669.3 1195.21 1684.99 1226.94C1702.8 1262.94 1702.28 1304.96 1716.72 1342.18C1748.26 1423.53 1853.76 1450.56 1919.75 1391.68C1952.71 1362.27 1974.44 1323.43 2010.06 1296.4C2026.84 1283.65 2044.96 1272.64 2064.25 1264.11C2072.96 1260.26 2081.91 1256.53 2091.31 1254.8C2096.33 1253.88 2101.14 1253.53 2106.23 1253.87C2108.32 1254.01 2111.15 1254.87 2114 1255.54V1193.29C2109.65 1192.71 2105.18 1191.79 2101.11 1191.77C2093.6 1191.73 2086.12 1192.45 2078.73 1193.79C2063.92 1196.47 2049.4 1201.45 2035.65 1207.51C2009.75 1218.93 1986.4 1235.44 1966.41 1255.42C1944.49 1277.31 1926.3 1302.69 1906.27 1326.25C1889.15 1346.39 1870.63 1371.05 1842.44 1374.17C1814.02 1377.31 1787.31 1366.36 1772.66 1341.44C1756.85 1314.53 1751.47 1281.8 1738.35 1253.46C1715.22 1203.46 1669.7 1151.1 1608.08 1171.64C1550.31 1190.91 1532.47 1252.33 1536.95 1307.4C1539.6 1339.97 1546.3 1372.17 1555.36 1403.53C1564.37 1434.66 1577.82 1464.61 1584.88 1496.28C1588.27 1511.45 1589.49 1526.9 1588.48 1542.42C1588.02 1549.46 1587.78 1558.52 1585.41 1565.31C1582.67 1573.19 1575.75 1574.38 1568.44 1578.28C1541.43 1592.71 1516.66 1610.61 1486.5 1618.19C1480.33 1619.75 1455.07 1625.78 1451.31 1617.85C1448.17 1611.23 1463.43 1586.08 1466.26 1580.12C1480.5 1550.12 1495.59 1520.42 1507.4 1489.34C1528.6 1433.55 1530.57 1364.96 1491.03 1316.31C1472.97 1294.09 1448.43 1282.29 1422.2 1272.3C1411.49 1268.23 1399.41 1265.7 1393.19 1255.12C1386.3 1243.4 1387.3 1226.22 1387.03 1213.13C1386.36 1180.89 1388.21 1147.75 1404.27 1119.06C1420.32 1090.39 1439.2 1063.25 1455.51 1034.69C1487.84 978.089 1515.3 916.319 1507.1 849.381C1500.56 795.997 1463.64 738.688 1408.39 726.53C1346.14 712.833 1283.3 759.769 1231.53 787.63C1205.23 801.788 1177.26 816.353 1146.82 818.028C1125.48 819.203 1091.77 812.817 1098.96 784.684C1106.16 756.5 1126.82 733.576 1148.89 715.803C1174.68 695.02 1202.03 675.838 1229.43 657.235C1282.82 620.975 1338.77 590.216 1399.67 568.467C1461.23 546.486 1522.72 526.233 1572.37 481.791C1616.53 442.262 1650.45 386.082 1670.43 330.575C1681.4 300.09 1684.87 267.069 1698.59 237.578C1702.56 229.044 1707.42 212.922 1717.94 215.894C1733.17 220.197 1747.86 229.841 1763.31 234.695C1771.69 237.329 1848 253.405 1847.82 258.869C1847.7 262.877 1825.11 273.931 1821.43 276.431C1809.91 284.25 1798.69 292.506 1787.78 301.138C1767.37 317.272 1747.81 334.652 1729.66 353.301C1692.86 391.124 1664.02 436.677 1636.77 481.648C1587.73 562.585 1549.8 669.374 1572.06 764.664C1582.16 807.872 1605.75 846.801 1637.86 877.256C1670.33 908.06 1727.07 931.484 1728.09 982.527C1728.63 1009.8 1723.24 1036.61 1726.23 1063.93C1728.76 1087.07 1736.47 1109.31 1748.78 1129.07C1773.58 1168.86 1813.54 1196.56 1858.29 1209.4C1915.01 1225.67 1967.22 1206.06 2012.82 1172.31C2053.85 1141.95 2086.91 1106.46 2114 1064.12V899.823C2104.3 910.424 2090.63 931.505 2087.57 935.553C2074.14 953.307 2061.3 971.472 2048.52 989.687C2024.71 1023.61 2001.67 1057.25 1967.84 1082.04C1942.73 1100.44 1897.78 1129.52 1868.52 1105.38C1856.38 1095.36 1853.04 1080.73 1851.7 1065.73C1849.78 1044.39 1848.28 1023.53 1842.45 1002.78C1832.35 966.747 1812.37 934.715 1784.55 909.7C1754.41 882.597 1715.27 869.968 1684.57 844.168C1617.53 787.83 1629.02 688.005 1651.62 612.852C1675.17 534.511 1714.53 456.064 1764.97 391.705C1790 359.772 1818.34 332.106 1850.59 307.51C1860.5 299.949 1883.18 276.01 1894.92 280.122C1910.22 285.485 1922.91 308.588 1927.79 322.719C1934.18 341.179 1933.05 359.892 1930.88 378.964C1929.61 390.097 1928 401.188 1926.54 412.296C1925.25 422.014 1926.68 437.562 1923.01 446.536C1920.4 452.935 1921.03 451.454 1912.22 451.636C1901.17 451.864 1890.18 452.695 1879.22 454.115C1859.36 456.69 1839.9 461.216 1821.29 468.687C1786.41 482.691 1753.58 506.585 1729.86 535.826C1704 567.697 1694.19 607.631 1695.41 648.112C1696.74 692.561 1704.32 735.845 1737.01 768.394C1766.13 797.384 1804.82 820.289 1845 829.038C1869.84 834.446 1893.71 843.758 1918.69 848.346C1942.38 852.698 1966.55 854.077 1990.6 854.378C2015.2 854.684 2039.69 854.658 2064.03 850.75C2076.27 848.785 2084.7 850.956 2096.6 854.4C2101.3 855.757 2107.99 859.83 2113.99 862.431V730.738C2087.12 717.359 2060.26 706.65 2029.38 706.783C1996.36 706.926 1963.11 715.386 1931.57 724.55C1902.3 733.054 1874.89 747.701 1844.43 751.455C1812.49 755.392 1783.95 746.026 1761.96 721.483C1742.82 700.12 1741.05 665.964 1744.94 638.907C1748.88 611.45 1767.51 591.396 1791.46 578.728C1818.06 564.651 1850.5 558.116 1879.99 553.331C1895.29 550.848 1910.62 549.688 1926.07 548.72C1931.87 548.356 1936.86 546.834 1941.33 550.706C1946.03 554.784 1949.54 565.751 1953 570.984C1970.66 597.684 1995.42 619.086 2023.69 633.922C2038.12 641.496 2053.45 647.76 2069.37 651.396C2078.51 653.485 2087.82 654.702 2097.2 654.983C2100.26 655.075 2107.83 653.771 2113.99 653.343V613.348C2074.64 606.038 2045.04 583.445 2022.08 550.531C2020.98 548.959 2018.74 547.154 2019.76 545.248C2020.64 543.607 2023.25 544.56 2025.08 544.478C2055.15 543.128 2084.86 539.414 2113.99 531.876V460.455C2106.05 461.338 2095.38 464.39 2090.43 464.653C2077.22 465.35 2063.92 464.958 2050.71 464.266C2044.97 463.964 2039.23 463.563 2033.49 463.105C2027.98 462.665 2015.22 463.808 2010.56 460.963C2007.67 459.198 2007.88 461.693 2006.4 458.763C2004.57 455.142 2007.34 444.262 2007.51 440.092C2009.34 393.735 2003.57 346 1983.66 303.625C1975.26 285.753 1963.01 270.049 1947.25 258.085C1939.79 252.42 1932.16 251.698 1942.04 246.065C1952.8 239.932 1964.55 235.228 1975.96 230.425C1998.97 220.73 2022.65 212.546 2047.35 208.415C2069.43 204.721 2091.71 204.947 2113.99 204.158V164.554C2049.2 159.149 1981.81 184.503 1925.09 213.629C1918.1 217.219 1911.22 221.024 1904.43 224.98C1894.88 230.547 1892.53 230.823 1881.98 227.471C1866.17 222.446 1850.05 218.465 1833.83 215.019C1816.71 211.382 1799.42 208.601 1782.33 204.828C1775.86 203.399 1735.36 196.184 1734.25 189.034C1733.44 183.826 1757.91 167.992 1761.99 164.957C1772.99 156.769 1784.5 149.319 1796.23 142.234C1818.18 128.981 1840.47 116.699 1861.18 101.477C1882.31 85.9499 1901.52 68.3456 1920.66 50.4844C1931.63 40.2547 1942.56 29.9712 1953.04 19.2522C1956.89 15.3275 1966.56 7.26581 1971.73 0H1936.55C1936.52 0.027482 1936.48 0.05285 1936.45 0.0792749C1908.22 22.8481 1879.77 45.3262 1849.07 64.7539C1833.44 74.6421 1816.85 82.7017 1800.21 90.6831C1773.24 103.625 1747.24 118.206 1723.6 136.697C1714.2 144.049 1705.18 151.836 1696.62 160.151C1693.65 163.028 1693.65 162.997 1690.71 159.956C1680.42 149.317 1673.86 136.503 1669.18 122.651C1664.47 108.731 1661.89 94.4164 1660.44 79.759C1658.94 64.6186 1660.92 49.8248 1662.61 34.9254C1663.93 23.2032 1665.64 11.5509 1668.01 0.001057H1648.24C1646.19 6.39062 1642.13 13.7124 1640.73 18.3305C1637.66 28.4206 1635.12 38.7263 1633.73 49.1938C1630.99 69.8581 1632.15 91.9441 1636.18 112.374C1639.7 130.213 1646.16 147.445 1656.54 162.46C1659.83 167.213 1673.91 178.689 1674.15 183.969C1674.44 190.463 1656.69 207.078 1652.61 212.441C1625.55 247.968 1596.36 281.748 1570.94 318.495C1546.43 353.909 1521.82 389.871 1489.33 418.588C1422.25 477.882 1334.86 511.208 1256.25 551.758C1183.53 589.27 1105.57 631.895 1068.77 708.868C1053.5 740.807 1040.7 781.217 1057.18 815.142C1074.04 849.835 1112.96 860.203 1148.78 856.82C1192.02 852.737 1232.65 833.352 1273.19 819.15C1300.87 809.455 1369.61 780.872 1385.76 819.286C1393.54 837.783 1396.9 859.325 1401.3 878.844C1406.44 901.673 1407.1 923.766 1402.98 946.834C1395.09 991.094 1369.19 1024.84 1347.68 1063.15C1326.2 1101.42 1308.41 1144.31 1298.36 1187.07C1289.85 1223.27 1291.5 1262.25 1311.93 1294.35C1322.49 1310.94 1337.38 1324.45 1354.16 1334.56C1369.5 1343.8 1399.67 1348.57 1406.49 1366.8C1413.68 1386.03 1398.3 1409.59 1390.55 1426.33C1379.8 1449.52 1368.11 1472.32 1357.88 1495.74C1338.77 1539.48 1328.45 1590.83 1349.72 1635.88C1358.7 1654.9 1373.24 1671.2 1391.58 1681.62C1400.44 1686.65 1410.08 1690.32 1419.98 1692.73C1423.08 1693.48 1447.24 1695.44 1447.62 1697.27C1448.37 1700.85 1425.56 1723.55 1422.58 1727.64C1413.33 1740.33 1405.21 1753.81 1398.3 1767.91C1384.89 1795.3 1376.66 1824.73 1372.02 1854.81C1367.21 1885.96 1367 1917.68 1361.88 1948.78C1357.68 1974.21 1348.15 1999.37 1325.16 2013.36C1303.28 2026.68 1274.98 2028.66 1252.92 2014.77C1227.7 1998.88 1225.77 1969.09 1223.64 1942.07C1219.47 1889.38 1215.02 1825.1 1163.17 1796.52C1107.31 1765.73 1053.14 1801.56 1017.22 1845.48C1008.26 1856.43 1000.45 1868.26 992.805 1880.13C991.224 1882.58 987.057 1892.12 984.411 1892.99C980.976 1894.12 972.27 1884.08 969.531 1881.96C946.439 1864.04 918.175 1852.33 889.523 1847.01C837.471 1837.33 781.434 1867.8 748.745 1907.16C717.425 1944.88 699.183 2002.07 731.328 2045.08C770.536 2097.53 846.227 2086.03 897.682 2060.74ZM770.09 1955.4C789.328 1914.04 835.162 1892.78 879.059 1899.98C898.331 1903.13 917.033 1911.78 931.152 1925.43C936.84 1930.93 947.688 1941.65 948.472 1949.98C949.352 1959.31 937.537 1971.29 931.803 1978.29C902.131 2014.5 860.752 2039.94 813.606 2042.7C792.415 2043.29 769.603 2033.12 763.156 2011.45C757.897 1993.77 762.484 1971.75 770.09 1955.4Z" fill="#F2F1DC"/>
<path d="M1590.35 82.7778C1586.72 65.5752 1580.04 49.1283 1571.48 33.8071C1567.35 26.4218 1562.79 19.2892 1557.95 12.351C1556.43 10.1683 1551.21 4.83049 1547.48 0H1480.99C1460.38 48.5205 1441.84 102.33 1406.8 142.319C1370.31 183.965 1319.12 208.906 1265.57 219.299C1208.08 230.455 1149.26 233.947 1091.4 243.039C1085.79 243.92 1058.08 252.291 1054.32 249.043C1049.54 244.919 1055.47 217.606 1056.37 211.594C1060.48 184.216 1070.69 159.346 1086.57 136.708C1121.36 87.0957 1173.45 52.6058 1204.03 0H1131.56C1117.04 21.8038 1102.47 43.4131 1085.81 63.7286C1068.68 84.6339 1053.1 106.481 1039.82 130.058C1025.81 154.936 1013.35 181.2 1005.51 208.718C1001.29 223.513 998.366 238.59 996.966 253.91C996.402 260.076 997.331 261.978 992.584 265.504C987.806 269.053 978.314 270.374 972.699 272.543C944.472 283.449 917.873 297.945 891.572 312.807C866.73 326.846 842.173 342.137 822.04 362.588C785.042 400.168 759.171 458.698 793.863 506.437C828.724 554.405 893.151 570.34 933.816 612.29C942.52 621.269 950.713 632.603 949.229 645.734C947.812 658.269 937.41 669.794 929.384 678.912C910.318 700.575 887.17 718.06 863.887 734.902C816.782 768.975 767.076 795.872 728.116 839.997C662.39 914.438 611.934 1059.51 698.507 1138.45C794.971 1226.4 923.552 1125.22 1010.75 1074.52C1035.57 1060.09 1060.58 1045.72 1087.02 1034.42C1103.02 1027.58 1136.07 1014.03 1147.55 1034.61C1160.39 1057.61 1154.44 1092.27 1146.44 1115.79C1136.89 1143.89 1118.93 1168.88 1103.92 1194.25C1074.56 1243.9 1045.8 1294.57 1045.34 1353.94C1044.86 1415.95 1071.68 1466.25 1099.52 1519.61C1110.36 1540.38 1125.17 1570.28 1112.07 1593.13C1099.29 1615.43 1073.64 1628.69 1050.91 1638.15C993.494 1662.05 930.559 1673.93 870.889 1691.23C812.568 1708.14 756.992 1732.05 698.98 1749.6C671.187 1758 639.593 1767.61 610.268 1765.42C582.7 1763.37 549.3 1752.21 527.495 1734.85C504.482 1716.54 517.406 1686.98 535.519 1669.98C554.325 1652.33 579.801 1639.55 604.106 1631.48C659.796 1612.96 720.862 1622.98 778.386 1615.03C834.006 1607.34 885.179 1584.7 924.491 1543.89C964.074 1502.8 967.18 1442.62 923.346 1403.03C882.878 1366.48 826.622 1357.54 775.199 1371.11C745.839 1378.85 716.851 1387.95 686.991 1393.68C655.575 1399.72 632.091 1395.41 603.901 1380.96C578.48 1367.92 554.613 1352.54 527.8 1342.29C500.635 1331.91 471.601 1324.9 443.328 1318.24C414.066 1311.34 384.27 1306.35 354.289 1311.45C326.883 1316.11 301.333 1327.82 278.505 1343.48C237.107 1371.88 199.126 1413.27 184.902 1462.27C168.943 1517.24 182.198 1571.34 213.939 1617.75C230.674 1642.22 249.925 1665.03 267.815 1688.66C285.749 1712.35 301.615 1737.41 317.051 1762.77C333.445 1789.7 349.531 1816.85 364.363 1844.68C378.406 1871.03 392.777 1898.12 399.093 1927.54C404.874 1954.47 402.777 1982.95 386.484 2005.92C371.743 2026.71 349.138 2042.67 327.015 2054.73C301.439 2068.67 273.63 2077.44 245.369 2084.07C215.92 2090.98 185.356 2096.59 155.017 2093.06C132.377 2090.43 109.733 2081.44 97.7037 2061.03C83.6826 2037.24 84.9394 2005.22 87.4931 1978.7C93.5592 1915.71 118.214 1854.68 132.662 1793.28C146.209 1735.7 158.203 1678.91 133.805 1622.39C122.835 1596.97 106.465 1574.67 87.2489 1554.89C67.4619 1534.52 44.5367 1516.48 27.5137 1493.58C11.0224 1471.4 5.32199 1444.88 17.4426 1419.2C28.7895 1395.15 52.0773 1379.45 73.3832 1364.98C96.466 1349.3 120.689 1335.15 139.103 1313.74C156.959 1292.99 169.534 1267.39 175.739 1240.77C187.857 1188.79 176.642 1131.23 141.67 1090.4C106.661 1049.54 54.5993 1012.81 0 1005.12V1168.8C15.9321 1176.75 28.0697 1194.5 38.7591 1207.81C51.163 1223.25 63.8047 1240.54 66.9049 1260.65C70.0991 1281.36 58.5366 1298.59 43.9278 1312.07C36.4094 1319 28.2198 1325.24 20.2669 1331.66C15.5633 1335.46 6.51746 1345.82 0 1349.29V1597.21C13.3975 1614.73 24.7105 1634.74 36.1768 1653.46C48.0353 1672.82 59.2913 1692.95 64.5837 1715.22C75.4391 1760.89 62.475 1811.29 52.3902 1855.99C42.0897 1901.64 28.2937 1947.15 24.7274 1993.99C23.014 2016.49 24.0319 2039.32 28.911 2061.4C31.3157 2072.28 34.6981 2082.99 39.351 2093.12C41.2705 2097.31 49.7741 2108.04 52.0604 2114H473.01C484.952 2098.88 499.324 2086.58 509.422 2069.52C520.779 2050.34 528.542 2028.89 531.153 2006.71C536.957 1957.4 518.879 1910.09 493.657 1868.61C441.79 1783.31 363.919 1714.32 290.65 1647.92C256.062 1616.57 220.369 1581.51 216.455 1532.31C212.79 1486.23 239.3 1442.82 270.776 1411.27C286.112 1395.9 303.164 1381.96 325.208 1378.31C347.475 1374.62 370.88 1382.69 390.293 1393.15C411.969 1404.82 428.956 1421.99 446.483 1438.94C463.038 1454.95 480.941 1468.71 501.097 1479.91C551.256 1507.79 606.449 1520.43 663.845 1517.04C692.591 1515.34 721.328 1507.45 749.552 1502.06C762.97 1499.5 775.636 1497.9 789.311 1499.51C795.013 1500.18 827.514 1501.35 830.283 1505.99C833.398 1511.2 795.46 1530.33 790.209 1532.54C771.58 1540.39 751.757 1543.89 731.684 1545.34C693.341 1548.09 655.046 1545.37 617.209 1553.87C551.418 1568.65 475.783 1615.84 453.224 1682.85C442.235 1715.5 445.786 1752.29 463.574 1781.8C482.956 1813.96 515.363 1833.77 548.459 1849.56C584.639 1866.82 624.072 1879.41 664.464 1879.39C705.068 1879.38 743.882 1867.48 782.341 1855.69C859.576 1832.03 941.178 1807.46 1011.52 1767.03C1046.89 1746.7 1081.62 1725.45 1117.41 1705.8C1149.58 1688.15 1179.71 1671.15 1198.81 1638.48C1216.95 1607.46 1221.29 1570.05 1212.8 1535.32C1203.32 1496.56 1178.66 1463.93 1165.63 1426.52C1152.79 1389.68 1170.79 1350.86 1187.02 1317.81C1204.84 1281.53 1245.07 1211.45 1245.07 1211.45C1245.07 1211.45 1290.11 1067.28 1240.98 1008.26C1219.18 982.07 1186.3 963.9 1151.47 965.826C1112.65 967.974 1071.8 988.04 1037.44 1004.94C1000.96 1022.89 965.922 1043.78 930.359 1063.45C897.038 1081.88 859.744 1104.84 821.162 1109.14C806.61 1110.76 788.183 1109.66 780.147 1095.44C771.569 1080.26 781.921 1058.53 787.132 1043.5C799.693 1007.27 815.12 974.734 840.456 945.563C892.985 885.084 952.628 827.222 994.094 758.136C1012.88 726.831 1028.33 691.127 1020.51 653.944C1012.98 618.173 986.77 592.839 956.223 575.122C922.678 555.666 886.332 541.773 852.291 523.306C821.297 506.492 793.534 481.729 807.545 443.486C819.742 410.197 851.1 389.138 881.69 374.46C899.562 365.884 917.954 358.298 936.526 351.379C945.907 347.884 955.361 344.589 964.878 341.483C972.529 338.985 991.2 329.387 998.918 331.25C1005 332.718 1003.9 336.537 1006.1 343.937C1009.14 354.155 1012.65 364.242 1016.71 374.098C1022.99 389.301 1030.9 403.698 1040.95 416.742C1061.94 443.993 1091.06 465.091 1122.77 478.162C1156.38 492.019 1194.36 498.467 1230.24 490.743C1268.76 482.448 1303.43 459.439 1334.67 436.368C1366.86 412.602 1400.03 390.39 1433.95 369.172C1467.55 348.159 1499.09 326.81 1523.93 295.39C1569.15 238.211 1606.04 156.996 1590.35 82.7778ZM1555.95 168.802C1542.21 213.315 1521.42 256.408 1487.19 288.786C1447.33 326.5 1392.82 348.204 1346.79 377.404C1301.59 406.075 1252.87 448.69 1196.54 448.646C1153.91 448.483 1110.37 421.206 1085.74 387.386C1072.81 369.633 1061.84 346.732 1059.64 324.638C1058.55 313.715 1066.73 316.042 1076.97 314.542C1091.05 312.476 1105.24 311.124 1119.45 310.322C1219.05 304.702 1321.44 306.599 1404.43 242.513C1442.23 213.319 1469.47 171.059 1489.69 128.214C1500.71 104.859 1508.22 79.9715 1515.7 55.3117C1519.23 43.6963 1522.51 31.9911 1526.23 20.436C1530.58 6.93603 1533.76 18.8368 1538.68 27.371C1564.51 72.1708 1571.25 119.22 1555.95 168.802Z" fill="#F2F1DC"/>
<path d="M768.406 0C768.494 49.8354 776.478 105.508 732.48 139.83C691.91 171.478 636.533 174.107 595.803 206.724C560.337 235.126 537.642 277.719 529.684 322.148C519.423 379.429 537.354 440.259 554.531 494.516C563.126 521.669 574.208 548.804 571.741 577.878C569.363 605.897 553.023 625.033 531.665 641.785C490.379 674.168 448.6 701.667 420.66 747.515C394.339 790.704 380.39 843.368 397.961 892.457C415.564 941.635 457.596 975.565 500.534 1002.14C538.153 1025.42 609.452 1064.03 591.133 1119.39C573.499 1172.67 506.415 1186.59 457.69 1184.47C352.798 1179.92 250.879 1119.23 190.582 1034.45C159.866 991.261 143.635 942.126 155.601 889.241C165.881 843.811 195.025 808.338 231.572 780.826C277.616 746.166 328.41 718.754 377.391 688.625C421.163 661.701 459.706 624.546 478.417 575.777C498.572 523.245 491.902 468.113 467.394 418.438C454.763 392.837 440.413 368.063 426.394 343.208C411.871 317.459 403.104 293.061 408.507 263.006C418.352 208.244 478.767 186.276 522.996 165.17C568.742 143.34 607.275 110.623 629.687 64.422C639.873 43.4279 644.885 22.7498 645.851 0H615.52C613.531 11.8511 606.194 25.0562 601.657 34.6579C596.35 45.8917 590.601 56.7915 583.338 66.9017C549.658 113.788 493.528 128.306 446.273 157.069C397.174 186.954 367.367 234.245 369.267 292.825C371.259 354.211 403.767 408.948 411.885 469.009C415.826 498.161 412.41 529.408 400.586 556.472C389.824 581.106 370.182 599.552 349.295 615.772C302.698 651.956 247.61 675.209 201.506 711.832C158.199 746.231 120.116 791.615 105.545 845.808C75.8126 956.392 123.687 1068.16 205.507 1143.31C285.257 1216.56 410.732 1265.22 518.13 1232.41C566.798 1217.53 611.321 1183.26 634.982 1137.77C662.519 1084.84 643.454 1028.38 602.323 988.973C581.104 968.644 556.219 952.352 530.749 937.89C507.135 924.481 481.006 912.541 463.383 891.139C426.722 846.615 446.78 787.221 480.449 747.528C517.901 703.375 575.044 684.3 614.634 642.855C653.797 601.857 661.758 538.968 649.813 485.414C638.129 433.029 595.722 377.3 609.104 321.762C622.649 265.552 689.049 246.748 737.032 231.576C789.461 214.998 835.351 192.453 869.652 147.942C902.521 105.289 910.785 51.5128 899.052 0H768.406Z" fill="#F2F1DC"/>
<path d="M23.3574 599.915C23.6185 543.491 57.2596 488.442 95.6783 449.168C105.096 439.541 116.935 432.019 126.105 422.417C131.382 416.892 131.117 418.62 125.94 411.096C121.418 404.523 116.653 398.123 112.194 391.505C95.1974 366.284 82.6857 339.03 69.8612 311.561C56.9499 283.907 43.0218 255.704 39.0739 225.097C35.3142 195.949 40.1457 167.424 52.4259 140.824C73.3524 95.497 112.579 55.2074 160.119 38.0343C210.333 19.8962 273.769 35.6592 297.686 86.447C322.442 139.018 313.14 199.963 285.308 248.821C269.872 275.919 249.934 299.884 230.406 324.072C220.308 336.578 210.126 349.018 199.832 361.363C197.378 364.306 190.122 370.102 189.194 374.114C187.933 379.569 194.813 385.213 198.356 389.656C233.552 433.791 271.148 484.932 265.42 544.841C259.625 605.452 207.197 653.394 152.019 672.248C93.521 692.236 23.3574 669.645 23.3574 599.915ZM215.415 69.7379C163.917 68.9896 120.288 106.447 101.518 152.494C81.8835 200.661 105.237 251.843 128.251 294.495C134.393 305.878 140.913 317.043 148.474 327.547C152.219 332.749 163.429 351.429 169.201 351.02C172.503 350.787 179.716 338.767 182.339 335.911C186.508 331.368 190.704 326.857 194.776 322.225C202.908 312.98 210.738 303.471 218.404 293.838C247.683 257.048 283.789 216.505 286.566 167.163C289.088 122.386 267.314 68.1154 215.415 69.7379ZM101.268 657.232C146.895 657.846 193.371 624.801 202.595 579.123C208.304 550.852 194.914 527.381 181.595 503.593C174.574 491.05 167.555 478.508 160.565 465.948C156.539 458.712 149.13 438.032 141.82 434.183C137.025 431.659 140.547 431.356 134.669 434.421C129.249 437.246 123.896 444.366 119.627 448.704C110.06 458.425 100.91 468.681 92.463 479.393C76.3099 499.879 63.2517 522.777 54.6129 547.427C46.529 570.497 39.8952 598.083 47.2266 622.223C54.337 645.637 77.7622 657.732 101.268 657.232Z" fill="#F2F1DC"/>
</svg>
